<svg xmlns="http://www.w3.org/2000/svg" xmlns:xlink="http://www.w3.org/1999/xlink" width="50" zoomAndPan="magnify" viewBox="0 0 37.5 37.499999" height="50" preserveAspectRatio="xMidYMid meet" version="1.0"><defs><clipPath id="e747569213"><path d="M 18 32 L 21 32 L 21 37.007812 L 18 37.007812 Z M 18 32 " clip-rule="nonzero"/></clipPath><clipPath id="a11724d68b"><path d="M 13 31 L 18 31 L 18 37.007812 L 13 37.007812 Z M 13 31 " clip-rule="nonzero"/></clipPath><clipPath id="dfa8ffb0ea"><path d="M 18 33 L 22 33 L 22 37.007812 L 18 37.007812 Z M 18 33 " clip-rule="nonzero"/></clipPath></defs><path fill="#ffffff" d="M 25.605469 7.40625 C 24.320312 9.792969 22.8125 12.179688 19.722656 14.558594 C 17.703125 16.113281 15.414062 16.996094 13.894531 20.988281 C 12.972656 23.414062 13.558594 25.800781 13.894531 28.136719 C 11.539062 21.972656 13.0625 18.488281 15.6875 16.277344 C 12.636719 18.417969 10.878906 21.761719 12.996094 27.75 C 9.996094 22.039062 12.308594 16.582031 17.3125 14.226562 C 11.785156 16.085938 10.449219 20.683594 10.921875 25.921875 C 9.796875 20.832031 10.113281 18.203125 12.996094 14.558594 C 10.117188 17.222656 8.875 20.910156 10.027344 26.085938 C 9.296875 24.796875 8.519531 23.339844 8.515625 20.710938 C 8.503906 15.347656 10.582031 12.277344 15.519531 10.898438 C 17.171875 10.4375 19.257812 10.503906 20.507812 10.125 C 22.164062 9.621094 23.164062 8.757812 24.316406 8.019531 C 23.445312 9.113281 22.402344 10.316406 20.5625 11.121094 C 19.199219 11.714844 17.722656 12.007812 16.304688 12.453125 C 14.742188 12.941406 14.148438 13.585938 13.5 14.226562 C 14.472656 13.46875 15.480469 12.984375 16.582031 12.785156 C 18.046875 12.519531 19.46875 12.023438 20.84375 11.453125 C 22.992188 10.5625 24.410156 9.015625 25.605469 7.40625 Z M 25.828125 5.023438 C 25.457031 4.632812 25.0625 4.464844 24.539062 5.855469 C 24.113281 6.722656 23.726562 7.59375 22.691406 8.460938 C 21.503906 9.210938 20.769531 9.78125 16.917969 10.125 C 7.304688 10.976562 4.816406 22.636719 10.980469 28.582031 C 11.78125 29.355469 12.886719 29.746094 13.78125 30.410156 C 14.386719 30.859375 14.90625 30.996094 15.460938 31.074219 C 16.09375 31.164062 16.472656 31.449219 16.75 31.796875 C 17.4375 32.644531 18.339844 32.449219 19.273438 32.460938 C 19.867188 32.46875 20.683594 32.429688 21.007812 32.9375 C 21.382812 33.519531 21.808594 33.628906 22.355469 33.402344 C 23.234375 33.042969 23.902344 33.148438 24.484375 33.015625 C 37.375 30.09375 37.722656 19.429688 29.808594 13.226562 C 26.519531 10.652344 27.738281 7.402344 28.183594 4.359375 C 28.394531 2.914062 26.988281 3.175781 25.828125 5.023438 Z M 26.753906 5.664062 C 27.039062 4.714844 27.601562 4.765625 27.472656 5.605469 C 27.226562 7.1875 26.546875 8.664062 25.734375 10.054688 C 26.160156 8.589844 26.324219 7.089844 26.753906 5.664062 Z M 12.992188 29.257812 C 13.660156 29.828125 14.246094 30.613281 15.550781 30.785156 C 16.175781 30.871094 16.285156 30.359375 15.765625 30.210938 C 14.867188 29.957031 13.917969 29.65625 12.992188 29.257812 Z M 17.070312 31.382812 C 16.765625 31.007812 17.105469 30.757812 17.503906 31.050781 C 17.957031 31.375 18.488281 31.765625 19.21875 32.078125 C 18.476562 32.097656 17.621094 32.0625 17.070312 31.382812 Z M 21.5625 32.507812 C 22.273438 32.136719 23.003906 32.328125 23.636719 32.53125 C 23.042969 32.523438 22.484375 32.636719 21.851562 32.867188 C 21.328125 33.058594 21.125 32.738281 21.5625 32.507812 Z M 14.902344 28.25 C 13.628906 22.558594 14.917969 18.21875 20.058594 15.167969 C 21.273438 14.328125 22.28125 13.386719 23.195312 12.398438 C 22.648438 13.769531 21.691406 14.980469 20.394531 16.054688 C 22.382812 14.726562 23.671875 12.933594 24.765625 11.011719 C 23.972656 13.144531 23.410156 15.324219 23.363281 17.605469 C 23.773438 15.59375 24.335938 13.652344 25.046875 11.785156 C 24.726562 16.402344 27.039062 19.5625 25.101562 24.257812 C 27.203125 20.355469 26.1875 18.105469 25.773438 14.503906 C 25.582031 12.847656 25.859375 11.203125 26.390625 10.234375 C 26.480469 12.304688 26.390625 14.445312 28.238281 16.441406 C 29.871094 18.207031 30.582031 19.792969 31.433594 21.984375 C 31.5625 19.863281 30.042969 17.476562 28.742188 15.886719 C 27.65625 14.554688 27.304688 13.246094 27.175781 11.84375 C 27.683594 13.109375 28.0625 14.285156 29.753906 15.777344 C 32.527344 18.226562 33.257812 19.902344 32.890625 23.539062 C 34.058594 20.03125 32.898438 17.863281 30.199219 15.5 C 28.890625 14.351562 28.433594 13.175781 27.847656 11.953125 C 28.949219 13.226562 30.421875 14.683594 31.601562 15.886719 C 33.527344 17.851562 33.691406 19.195312 34.011719 20.820312 C 35.390625 27.878906 30.269531 30.777344 24.371094 32.296875 C 27.738281 31.113281 30.160156 29.464844 31.433594 27.25 C 29.527344 29.652344 26.652344 31.09375 22.804688 31.574219 C 27.976562 29.808594 30.449219 27.769531 31.433594 22.539062 C 30.265625 28.6875 25.816406 30.160156 20.898438 30.964844 C 24.234375 30.207031 27.503906 28.984375 30.089844 22.871094 C 28.359375 26.019531 26.027344 28.503906 22.804688 30.023438 C 24.4375 28.65625 25.558594 26.882812 26.445312 24.921875 C 25.050781 27.554688 22.984375 29.589844 19.945312 30.742188 C 22.449219 29.117188 24.050781 27.066406 24.910156 24.699219 C 23.5 27.359375 21.601562 29.625 18.640625 30.8125 C 18.179688 31 17.796875 30.535156 18.152344 30.300781 C 21.496094 28.09375 22.777344 26.085938 23.925781 23.980469 C 22.414062 25.867188 21.257812 27.859375 18.433594 29.523438 C 17.628906 29.996094 17.410156 29.847656 17.480469 29.191406 C 17.828125 25.933594 18.539062 22.90625 19.496094 19.933594 C 18.320312 22.464844 17.347656 25.15625 16.808594 28.859375 C 16.710938 29.511719 16.351562 29.460938 16.191406 28.746094 C 15.214844 24.433594 16.414062 20.96875 18.320312 17.828125 C 15.910156 20.515625 14.921875 24.082031 14.902344 28.25 Z M 14.902344 28.25 " fill-opacity="1" fill-rule="evenodd"/><path fill="#ffffff" d="M 16.179688 31.121094 C 14.867188 31.976562 14.183594 31.484375 12.582031 30.976562 C 11.488281 30.632812 10.59375 31.121094 10.671875 32.605469 C 10.707031 33.25 10.378906 33.71875 10.019531 34.109375 C 10.238281 33.632812 10.378906 33.113281 10.335938 32.507812 C 10.1875 30.539062 11.835938 30.355469 12.894531 30.714844 C 13.546875 30.933594 14.746094 31.535156 15.308594 30.882812 C 15.597656 30.960938 15.886719 31.042969 16.179688 31.121094 Z M 16.179688 31.121094 " fill-opacity="1" fill-rule="evenodd"/><path fill="#ffffff" d="M 18.238281 32.203125 C 17.285156 33.257812 16.527344 33.171875 14.929688 33.53125 C 13.839844 33.773438 13.164062 34.4375 13.648438 35.296875 C 13.859375 35.667969 13.691406 36.085938 13.476562 36.46875 C 13.539062 36.09375 13.523438 35.722656 13.3125 35.378906 C 12.632812 34.253906 13.992188 33.175781 15.042969 33.050781 C 15.792969 32.964844 17.289062 32.789062 17.453125 32.085938 C 17.738281 32.011719 17.953125 32.277344 18.238281 32.203125 Z M 18.238281 32.203125 " fill-opacity="1" fill-rule="evenodd"/><path fill="#ffffff" d="M 14.027344 30.355469 C 12.523438 30.898438 12.351562 31.585938 12.316406 33.152344 C 12.296875 33.980469 11.761719 34.445312 11.300781 34.875 C 11.648438 34.316406 11.988281 33.804688 12 33.179688 C 12.027344 31.667969 12.089844 30.761719 13.472656 30.023438 C 13.660156 30.132812 13.84375 30.246094 14.027344 30.355469 Z M 14.027344 30.355469 " fill-opacity="1" fill-rule="evenodd"/><path fill="#ffffff" d="M 16.976562 31.820312 C 15.613281 31.332031 15.09375 31.707031 14.148438 32.773438 C 13.652344 33.332031 13.003906 33.347656 12.4375 33.382812 C 13.003906 33.195312 13.539062 33.039062 13.917969 32.609375 C 14.820312 31.578125 15.394531 30.988281 16.789062 31.273438 C 16.851562 31.453125 16.914062 31.636719 16.976562 31.820312 Z M 16.976562 31.820312 " fill-opacity="1" fill-rule="evenodd"/><path fill="#ffffff" d="M 20.308594 32.320312 C 18.597656 32.300781 17.894531 32.808594 16.585938 34.082031 C 15.898438 34.753906 15.066406 34.972656 14.328125 35.183594 C 15.074219 34.832031 15.78125 34.519531 16.300781 34.007812 C 17.554688 32.777344 18.34375 32.054688 20.113281 31.875 C 20.175781 32.023438 20.242188 32.171875 20.308594 32.320312 Z M 20.308594 32.320312 " fill-opacity="1" fill-rule="evenodd"/><g clip-path="url(#e747569213)"><path fill="#ffffff" d="M 19.125 32.269531 C 18.355469 34.183594 19.394531 35.707031 20.691406 37.171875 C 19.363281 35.261719 18.921875 33.628906 19.460938 32.292969 C 19.347656 32.285156 19.234375 32.277344 19.125 32.269531 Z M 19.125 32.269531 " fill-opacity="1" fill-rule="evenodd"/></g><g clip-path="url(#a11724d68b)"><path fill="#ffffff" d="M 16.882812 31.3125 C 17.933594 34.769531 15.6875 37.425781 13.960938 37.410156 C 16.421875 36.660156 17.457031 33.445312 16.542969 31.339844 C 16.65625 31.332031 16.769531 31.320312 16.882812 31.3125 Z M 16.882812 31.3125 " fill-opacity="1" fill-rule="evenodd"/></g><g clip-path="url(#dfa8ffb0ea)"><path fill="#ffffff" d="M 21.378906 33.035156 C 18.953125 33.464844 18.71875 35.167969 19.160156 37.050781 C 19.0625 34.675781 19.976562 33.464844 21.621094 33.328125 C 21.539062 33.230469 21.457031 33.132812 21.378906 33.035156 Z M 21.378906 33.035156 " fill-opacity="1" fill-rule="evenodd"/></g></svg>